<svg width="26" height="26" viewBox="0 0 26 26" fill="none" xmlns="http://www.w3.org/2000/svg">
<path d="M20.5833 1.08594H5.41667C2.42992 1.08594 0 3.51585 0 6.5026V19.5026C0 22.4894 2.42992 24.9193 5.41667 24.9193H20.5833C23.5701 24.9193 26 22.4894 26 19.5026V6.5026C26 3.51585 23.5701 1.08594 20.5833 1.08594ZM5.41667 3.2526H20.5833C22.3752 3.2526 23.8333 4.71077 23.8333 6.5026V8.66927H2.16667V6.5026C2.16667 4.71077 3.62483 3.2526 5.41667 3.2526ZM20.5833 22.7526H5.41667C3.62483 22.7526 2.16667 21.2944 2.16667 19.5026V10.8359H23.8333V19.5026C23.8333 21.2944 22.3752 22.7526 20.5833 22.7526ZM3.25 5.96094C3.25 5.06394 3.978 4.33594 4.875 4.33594C5.772 4.33594 6.5 5.06394 6.5 5.96094C6.5 6.85794 5.772 7.58594 4.875 7.58594C3.978 7.58594 3.25 6.85794 3.25 5.96094ZM7.58333 5.96094C7.58333 5.06394 8.31133 4.33594 9.20833 4.33594C10.1053 4.33594 10.8333 5.06394 10.8333 5.96094C10.8333 6.85794 10.1053 7.58594 9.20833 7.58594C8.31133 7.58594 7.58333 6.85794 7.58333 5.96094ZM9.75 17.3359V19.5026C9.75 20.1017 9.26467 20.5859 8.66667 20.5859C8.06867 20.5859 7.58333 20.1017 7.58333 19.5026V17.3359C7.58333 16.7369 8.06867 16.2526 8.66667 16.2526C9.26467 16.2526 9.75 16.7369 9.75 17.3359ZM14.0833 14.0859V19.5026C14.0833 20.1017 13.598 20.5859 13 20.5859C12.402 20.5859 11.9167 20.1017 11.9167 19.5026V14.0859C11.9167 13.4869 12.402 13.0026 13 13.0026C13.598 13.0026 14.0833 13.4869 14.0833 14.0859ZM18.4167 16.2526V19.5026C18.4167 20.1017 17.9313 20.5859 17.3333 20.5859C16.7353 20.5859 16.25 20.1017 16.25 19.5026V16.2526C16.25 15.6535 16.7353 15.1693 17.3333 15.1693C17.9313 15.1693 18.4167 15.6535 18.4167 16.2526Z" fill="#8F8F8F"/>
</svg>
