<svg width="26" height="26" viewBox="0 0 26 26" fill="none" xmlns="http://www.w3.org/2000/svg">
<g clip-path="url(#clip0_214_735)">
<path d="M20.5833 4.33333H19.3917C19.1402 3.1107 18.475 2.01213 17.508 1.22278C16.5411 0.433431 15.3316 0.00157573 14.0833 0L11.9167 0C10.6684 0.00157573 9.45893 0.433431 8.49198 1.22278C7.52503 2.01213 6.85977 3.1107 6.60833 4.33333H5.41667C3.98061 4.33505 2.60385 4.90629 1.5884 5.92174C0.572955 6.93719 0.00172018 8.31394 0 9.75L0 20.5833C0.00172018 22.0194 0.572955 23.3961 1.5884 24.4116C2.60385 25.427 3.98061 25.9983 5.41667 26H20.5833C22.0194 25.9983 23.3961 25.427 24.4116 24.4116C25.427 23.3961 25.9983 22.0194 26 20.5833V9.75C25.9983 8.31394 25.427 6.93719 24.4116 5.92174C23.3961 4.90629 22.0194 4.33505 20.5833 4.33333ZM11.9167 2.16667H14.0833C14.7531 2.16944 15.4057 2.37909 15.9518 2.76693C16.4978 3.15477 16.9107 3.70185 17.134 4.33333H8.866C9.08926 3.70185 9.50217 3.15477 10.0482 2.76693C10.5943 2.37909 11.2469 2.16944 11.9167 2.16667ZM5.41667 6.5H20.5833C21.4453 6.5 22.2719 6.84241 22.8814 7.4519C23.4909 8.0614 23.8333 8.88805 23.8333 9.75V13H2.16667V9.75C2.16667 8.88805 2.50908 8.0614 3.11857 7.4519C3.72806 6.84241 4.55471 6.5 5.41667 6.5ZM20.5833 23.8333H5.41667C4.55471 23.8333 3.72806 23.4909 3.11857 22.8814C2.50908 22.2719 2.16667 21.4453 2.16667 20.5833V15.1667H11.9167V16.25C11.9167 16.5373 12.0308 16.8129 12.234 17.016C12.4371 17.2192 12.7127 17.3333 13 17.3333C13.2873 17.3333 13.5629 17.2192 13.766 17.016C13.9692 16.8129 14.0833 16.5373 14.0833 16.25V15.1667H23.8333V20.5833C23.8333 21.4453 23.4909 22.2719 22.8814 22.8814C22.2719 23.4909 21.4453 23.8333 20.5833 23.8333Z" fill="#8F8F8F"/>
</g>
<defs>
<clipPath id="clip0_214_735">
<rect width="26" height="26" fill="white"/>
</clipPath>
</defs>
</svg>
