<svg width="26" height="26" viewBox="0 0 26 26" fill="none" xmlns="http://www.w3.org/2000/svg">
<g clip-path="url(#clip0_214_730)">
<path d="M20.5837 9.126V7.58333C20.5837 5.57211 19.7847 3.64326 18.3626 2.22111C16.9404 0.798956 15.0116 0 13.0003 0C10.9891 0 9.06025 0.798956 7.6381 2.22111C6.21595 3.64326 5.41699 5.57211 5.41699 7.58333V9.126C4.45213 9.5471 3.63089 10.2402 3.0537 11.1206C2.47651 12.0011 2.16838 13.0306 2.16699 14.0833V20.5833C2.16871 22.0194 2.73995 23.3961 3.7554 24.4116C4.77085 25.427 6.1476 25.9983 7.58366 26H18.417C19.8531 25.9983 21.2298 25.427 22.2453 24.4116C23.2607 23.3961 23.8319 22.0194 23.8337 20.5833V14.0833C23.8323 13.0306 23.5241 12.0011 22.947 11.1206C22.3698 10.2402 21.5485 9.5471 20.5837 9.126ZM7.58366 7.58333C7.58366 6.14674 8.15434 4.76899 9.17016 3.75317C10.186 2.73735 11.5637 2.16667 13.0003 2.16667C14.4369 2.16667 15.8147 2.73735 16.8305 3.75317C17.8463 4.76899 18.417 6.14674 18.417 7.58333V8.66667H7.58366V7.58333ZM21.667 20.5833C21.667 21.4453 21.3246 22.2719 20.7151 22.8814C20.1056 23.4909 19.2789 23.8333 18.417 23.8333H7.58366C6.72171 23.8333 5.89506 23.4909 5.28556 22.8814C4.67607 22.2719 4.33366 21.4453 4.33366 20.5833V14.0833C4.33366 13.2214 4.67607 12.3947 5.28556 11.7852C5.89506 11.1757 6.72171 10.8333 7.58366 10.8333H18.417C19.2789 10.8333 20.1056 11.1757 20.7151 11.7852C21.3246 12.3947 21.667 13.2214 21.667 14.0833V20.5833Z" fill="#8F8F8F"/>
<path d="M13.0003 15.1667C12.713 15.1667 12.4375 15.2809 12.2343 15.484C12.0311 15.6872 11.917 15.9628 11.917 16.2501V18.4167C11.917 18.7041 12.0311 18.9796 12.2343 19.1828C12.4375 19.3859 12.713 19.5001 13.0003 19.5001C13.2876 19.5001 13.5632 19.3859 13.7664 19.1828C13.9695 18.9796 14.0837 18.7041 14.0837 18.4167V16.2501C14.0837 15.9628 13.9695 15.6872 13.7664 15.484C13.5632 15.2809 13.2876 15.1667 13.0003 15.1667Z" fill="#8F8F8F"/>
</g>
<defs>
<clipPath id="clip0_214_730">
<rect width="26" height="26" fill="white"/>
</clipPath>
</defs>
</svg>
