<svg width="26" height="26" viewBox="0 0 26 26" fill="none" xmlns="http://www.w3.org/2000/svg">
<g clip-path="url(#clip0_214_739)">
<path d="M20.5833 1.08325H5.41667C3.98061 1.08497 2.60385 1.65621 1.5884 2.67166C0.572955 3.68711 0.00172018 5.06386 0 6.49992L0 15.1666C0.00172018 16.6026 0.572955 17.9794 1.5884 18.9948C2.60385 20.0103 3.98061 20.5815 5.41667 20.5833H11.9167V22.7499H7.58333C7.29602 22.7499 7.02047 22.8641 6.8173 23.0672C6.61414 23.2704 6.5 23.5459 6.5 23.8333C6.5 24.1206 6.61414 24.3961 6.8173 24.5993C7.02047 24.8025 7.29602 24.9166 7.58333 24.9166H18.4167C18.704 24.9166 18.9795 24.8025 19.1827 24.5993C19.3859 24.3961 19.5 24.1206 19.5 23.8333C19.5 23.5459 19.3859 23.2704 19.1827 23.0672C18.9795 22.8641 18.704 22.7499 18.4167 22.7499H14.0833V20.5833H20.5833C22.0194 20.5815 23.3961 20.0103 24.4116 18.9948C25.427 17.9794 25.9983 16.6026 26 15.1666V6.49992C25.9983 5.06386 25.427 3.68711 24.4116 2.67166C23.3961 1.65621 22.0194 1.08497 20.5833 1.08325ZM23.8333 15.1666C23.8333 16.0285 23.4909 16.8552 22.8814 17.4647C22.2719 18.0742 21.4453 18.4166 20.5833 18.4166H5.41667C4.55471 18.4166 3.72806 18.0742 3.11857 17.4647C2.50908 16.8552 2.16667 16.0285 2.16667 15.1666V6.49992C2.16667 5.63797 2.50908 4.81132 3.11857 4.20182C3.72806 3.59233 4.55471 3.24992 5.41667 3.24992H20.5833C21.4453 3.24992 22.2719 3.59233 22.8814 4.20182C23.4909 4.81132 23.8333 5.63797 23.8333 6.49992V15.1666ZM21.6667 10.8333C21.6667 11.1206 21.5525 11.3961 21.3494 11.5993C21.1462 11.8024 20.8707 11.9166 20.5833 11.9166H17.3713L15.5296 14.6845C15.4303 14.8333 15.2958 14.9552 15.1379 15.0393C14.9801 15.1234 14.8039 15.1671 14.625 15.1666C14.6023 15.1666 14.5795 15.1666 14.5578 15.1666C14.3683 15.1549 14.1852 15.0936 14.0268 14.9889C13.8684 14.8841 13.7403 14.7395 13.6554 14.5697L11.2407 9.73692L10.1097 11.4345C10.0107 11.5828 9.87666 11.7044 9.71943 11.7885C9.5622 11.8726 9.38664 11.9166 9.20833 11.9166H5.41667C5.12935 11.9166 4.8538 11.8024 4.65063 11.5993C4.44747 11.3961 4.33333 11.1206 4.33333 10.8333C4.33333 10.5459 4.44747 10.2704 4.65063 10.0672C4.8538 9.86406 5.12935 9.74992 5.41667 9.74992H8.62875L10.4704 6.982C10.5747 6.82228 10.7198 6.69335 10.8906 6.60858C11.0615 6.52382 11.2519 6.4863 11.4422 6.49992C11.6317 6.51159 11.8148 6.57289 11.9732 6.67765C12.1316 6.78242 12.2597 6.92698 12.3446 7.09684L14.7593 11.9274L15.8903 10.2298C15.9895 10.0819 16.1237 9.96073 16.2809 9.87702C16.4381 9.79331 16.6136 9.74965 16.7917 9.74992H20.5833C20.8707 9.74992 21.1462 9.86406 21.3494 10.0672C21.5525 10.2704 21.6667 10.5459 21.6667 10.8333Z" fill="#8F8F8F"/>
</g>
<defs>
<clipPath id="clip0_214_739">
<rect width="26" height="26" fill="white"/>
</clipPath>
</defs>
</svg>
