<svg width="26" height="26" viewBox="0 0 26 26" fill="none" xmlns="http://www.w3.org/2000/svg">
<g clip-path="url(#clip0_214_737)">
<path d="M10.8333 26H0V23.8333H10.8333V26ZM8.66667 19.5H0V21.6667H8.66667V19.5ZM6.5 15.1667H0V17.3333H6.5V15.1667ZM13 0C9.55333 0.00372784 6.24889 1.37456 3.81173 3.81173C1.37456 6.24889 0.00372784 9.55333 0 13H2.16667C2.16667 10.8574 2.80203 8.76286 3.99241 6.98132C5.18279 5.19979 6.87473 3.81125 8.85426 2.99131C10.8338 2.17136 13.012 1.95682 15.1135 2.37483C17.2149 2.79283 19.1453 3.82461 20.6603 5.33968C22.1754 6.85475 23.2072 8.78506 23.6252 10.8865C24.0432 12.988 23.8286 15.1662 23.0087 17.1457C22.1887 19.1253 20.8002 20.8172 19.0187 22.0076C17.2371 23.198 15.1426 23.8333 13 23.8333V26C16.4478 26 19.7544 24.6304 22.1924 22.1924C24.6304 19.7544 26 16.4478 26 13C26 9.55219 24.6304 6.24558 22.1924 3.80761C19.7544 1.36964 16.4478 0 13 0ZM11.9167 7.58333V13.4485L15.4841 17.0159L17.0159 15.4841L14.0833 12.5515V7.58333H11.9167Z" fill="#8F8F8F"/>
</g>
<defs>
<clipPath id="clip0_214_737">
<rect width="26" height="26" fill="white"/>
</clipPath>
</defs>
</svg>
