<svg width="26" height="26" viewBox="0 0 26 26" fill="none" xmlns="http://www.w3.org/2000/svg">
<g clip-path="url(#clip0_214_733)">
<path d="M22.8952 13.2925C22.6612 12.8852 22.7457 12.3695 23.0782 12.0369L23.101 12.0142C23.5885 11.5267 24.4227 11.6101 24.7672 12.207C25.1582 12.8841 25.4659 13.6153 25.675 14.3867C25.8559 15.054 25.3251 15.7083 24.6328 15.7083H24.5992C24.1302 15.7083 23.7044 15.4061 23.582 14.9533C23.4238 14.3661 23.1909 13.8093 22.8952 13.2925ZM24.6339 17.875H24.6003C24.1312 17.875 23.7055 18.1773 23.5831 18.6301C23.4249 19.2173 23.192 19.7741 22.8962 20.2908C22.6622 20.6982 22.7467 21.2138 23.0793 21.5464L23.1021 21.5692C23.5896 22.0567 24.4237 21.9733 24.7682 21.3763C25.1593 20.6993 25.467 19.968 25.6761 19.1967C25.857 18.5293 25.3262 17.875 24.6339 17.875ZM14.9543 23.582C14.3672 23.4238 13.8103 23.1909 13.2936 22.8952C12.8862 22.6612 12.3706 22.7457 12.038 23.0783L12.0152 23.101C11.5277 23.5885 11.6112 24.4227 12.2081 24.7672C12.8852 25.1583 13.6164 25.4659 14.3877 25.675C15.0551 25.8559 15.7094 25.3251 15.7094 24.6328V24.5993C15.7094 24.1302 15.4072 23.7044 14.9543 23.582ZM21.5475 23.0783C21.2149 22.7457 20.6992 22.6612 20.2919 22.8952C19.7762 23.1909 19.2194 23.4238 18.6312 23.582C18.1783 23.7044 17.8761 24.1302 17.8761 24.5993V24.6328C17.8761 25.3251 18.5304 25.8559 19.1978 25.675C19.9691 25.4659 20.7003 25.1583 21.3774 24.7672C21.9743 24.4227 22.0567 23.5885 21.5702 23.101L21.5475 23.0783ZM18.3809 9.93958C18.0256 14.4343 14.4343 18.0245 9.94067 18.3798C10.0988 19.0558 10.3491 19.6961 10.6871 20.2822C10.9232 20.6928 10.8431 21.2117 10.5083 21.5464C10.5007 21.554 10.4932 21.5616 10.4856 21.5692C9.99592 22.0578 9.16067 21.9711 8.81508 21.3731C8.27233 20.4349 7.8975 19.3928 7.71442 18.2845C3.34642 17.5663 0 13.7757 0 9.20833C0 4.13075 4.13075 0 9.20833 0C13.7746 0 17.5662 3.34533 18.2845 7.71225C19.3917 7.89533 20.4349 8.27017 21.3731 8.81292C21.9711 9.1585 22.0577 9.99483 21.5692 10.4834C21.5616 10.491 21.554 10.4986 21.5464 10.5062C21.2117 10.8409 20.6927 10.9211 20.2832 10.6849C19.6972 10.3469 19.0569 10.0967 18.3809 9.9385V9.93958ZM7.61583 16.0615C7.63425 15.8232 7.65808 15.5827 7.696 15.3411C8.29942 11.4454 11.4476 8.29725 15.3432 7.696C15.5848 7.65917 15.8232 7.63533 16.0615 7.61692C15.3367 4.50017 12.5428 2.16775 9.20833 2.16775C5.32567 2.16775 2.16667 5.32675 2.16667 9.20942C2.16667 12.5439 4.49908 15.3368 7.61583 16.0615ZM16.2207 9.77708C15.964 9.79767 15.704 9.828 15.4429 9.87783C12.6544 10.4043 10.4054 12.6544 9.87783 15.4418C9.828 15.704 9.79767 15.964 9.77708 16.2208C13.2058 15.9445 15.9445 13.2058 16.2207 9.77708Z" fill="#8F8F8F"/>
</g>
<defs>
<clipPath id="clip0_214_733">
<rect width="26" height="26" fill="white"/>
</clipPath>
</defs>
</svg>
